<?xml version="1.0" standalone="no"?><!DOCTYPE svg PUBLIC "-//W3C//DTD SVG 1.1//EN" "http://www.w3.org/Graphics/SVG/1.1/DTD/svg11.dtd"><svg t="1649912117099" class="icon" viewBox="0 0 1024 1024" version="1.1" xmlns="http://www.w3.org/2000/svg" p-id="2484" xmlns:xlink="http://www.w3.org/1999/xlink" width="64" height="64"><defs><style type="text/css">@font-face { font-family: feedback-iconfont; src: url("//at.alicdn.com/t/font_1031158_u69w8yhxdu.woff2?t=1630033759944") format("woff2"), url("//at.alicdn.com/t/font_1031158_u69w8yhxdu.woff?t=1630033759944") format("woff"), url("//at.alicdn.com/t/font_1031158_u69w8yhxdu.ttf?t=1630033759944") format("truetype"); }
</style></defs><path d="M584.704 998.4H439.296c-228.352 0-413.696-185.344-413.696-413.696V439.296c0-228.352 185.344-413.696 413.696-413.696h145.408c228.352 0 413.696 185.344 413.696 413.696v145.408c0 228.352-185.344 413.696-413.696 413.696z" fill="#9AC524" p-id="2485"></path><path d="M998.4 584.704V439.296c0-228.352-185.344-413.696-413.696-413.696H439.296C210.944 25.6 25.6 210.944 25.6 439.296v145.408c0 228.352 185.344 413.696 413.696 413.696h145.408c13.312 0 26.624-1.024 38.912-2.048 162.816-61.44 294.912-185.344 368.64-342.016 4.096-22.528 6.144-46.08 6.144-69.632z" fill="#9AC524" p-id="2486"></path><path d="M997.376 414.72c-13.312-217.088-192.512-389.12-412.672-389.12H439.296C210.944 25.6 25.6 210.944 25.6 439.296v145.408c0 185.344 121.856 342.016 289.792 394.24 23.552 3.072 47.104 4.096 70.656 4.096 324.608 1.024 589.824-250.88 611.328-568.32z" fill="#9EC829" p-id="2487"></path><path d="M584.704 25.6H439.296C210.944 25.6 25.6 210.944 25.6 439.296v145.408c0 110.592 43.008 210.944 113.664 284.672 86.016 41.984 184.32 63.488 286.72 56.32 294.912-20.48 524.288-274.432 516.096-570.368-2.048-59.392-12.288-116.736-31.744-171.008C835.584 88.064 717.824 25.6 584.704 25.6z" fill="#A2CC2E" p-id="2488"></path><path d="M887.808 380.928c2.048-111.616-31.744-215.04-91.136-297.984-61.44-36.864-134.144-57.344-210.944-57.344H439.296C210.944 25.6 25.6 210.944 25.6 439.296v145.408c0 58.368 12.288 114.688 34.816 164.864 98.304 86.016 232.448 133.12 375.808 119.808 250.88-24.576 446.464-236.544 451.584-488.448z" fill="#A5CF33" p-id="2489"></path><path d="M439.296 25.6C210.944 25.6 25.6 210.944 25.6 439.296v145.408c0 16.384 1.024 32.768 3.072 49.152C111.616 746.496 246.784 819.2 399.36 815.104c235.52-6.144 427.008-199.68 432.128-434.176 3.072-138.24-57.344-262.144-152.576-345.088-29.696-7.168-61.44-10.24-93.184-10.24H439.296z" fill="#A9D338" p-id="2490"></path><path d="M563.2 25.6H439.296C210.944 25.6 25.6 210.944 25.6 439.296v74.752c58.368 149.504 207.872 253.952 380.928 245.76 200.704-10.24 362.496-175.104 368.64-375.808 4.096-156.672-82.944-291.84-211.968-358.4z" fill="#ADD63C" p-id="2491"></path><path d="M384 44.032c-33.792 0-67.584 5.12-98.304 14.336-73.728 28.672-137.216 78.848-183.296 141.312-31.744 51.2-50.176 111.616-50.176 176.128 0 183.296 148.48 331.776 331.776 331.776s331.776-148.48 331.776-331.776S567.296 44.032 384 44.032z" fill="#B1D941" p-id="2492"></path><path d="M384 376.832m-275.456 0a275.456 275.456 0 1 0 550.912 0 275.456 275.456 0 1 0-550.912 0Z" fill="#B4DD46" p-id="2493"></path><path d="M384 376.832m-220.16 0a220.16 220.16 0 1 0 440.32 0 220.16 220.16 0 1 0-440.32 0Z" fill="#B8E04B" p-id="2494"></path><path d="M278.528 635.904h17.408c11.264 0 21.504-7.168 25.6-17.408 11.264-27.648 37.888-48.128 69.632-48.128 32.768 0 60.416 20.48 70.656 50.176 3.072 9.216 12.288 15.36 22.528 15.36h3.072c19.456 0 34.816-15.36 34.816-34.816V403.456c0-41.984-33.792-75.776-75.776-75.776H330.752c-44.032 0-80.896 35.84-80.896 80.896v199.68c1.024 15.36 13.312 27.648 28.672 27.648z m289.792 0h2.048c9.216 0 17.408-5.12 20.48-14.336 10.24-29.696 37.888-51.2 70.656-51.2 37.888 0 69.632 28.672 73.728 65.536h19.456c10.24 0 18.432-8.192 18.432-18.432V514.048c0-36.864-63.488-131.072-93.184-131.072h-91.136c-21.504 0-38.912 17.408-38.912 38.912v194.56c-1.024 11.264 8.192 19.456 18.432 19.456zM605.184 430.08s29.696-1.024 64.512 0c15.36 1.024 56.32 55.296 56.32 83.968v9.216H605.184V430.08z m56.32 167.936c-31.744 0-57.344 32.768-41.984 66.56 4.096 10.24 12.288 18.432 22.528 22.528 33.792 14.336 66.56-10.24 66.56-41.984-1.024-25.6-21.504-47.104-47.104-47.104z m-273.408 0c-33.792 0-59.392 34.816-45.056 69.632 4.096 10.24 13.312 19.456 23.552 23.552 35.84 15.36 69.632-11.264 69.632-45.056 1.024-25.6-20.48-48.128-48.128-48.128z" fill="#FFFFFF" opacity=".8" p-id="2495"></path></svg>