<?xml version="1.0" standalone="no"?><!DOCTYPE svg PUBLIC "-//W3C//DTD SVG 1.1//EN" "http://www.w3.org/Graphics/SVG/1.1/DTD/svg11.dtd"><svg t="1649911018404" class="icon" viewBox="0 0 1024 1024" version="1.1" xmlns="http://www.w3.org/2000/svg" p-id="1449" xmlns:xlink="http://www.w3.org/1999/xlink" width="100" height="100"><defs><style type="text/css">@font-face { font-family: feedback-iconfont; src: url("//at.alicdn.com/t/font_1031158_u69w8yhxdu.woff2?t=1630033759944") format("woff2"), url("//at.alicdn.com/t/font_1031158_u69w8yhxdu.woff?t=1630033759944") format("woff"), url("//at.alicdn.com/t/font_1031158_u69w8yhxdu.ttf?t=1630033759944") format("truetype"); }
</style></defs><path d="M584.704 998.4H439.296c-228.352 0-413.696-185.344-413.696-413.696V439.296c0-228.352 185.344-413.696 413.696-413.696h145.408c228.352 0 413.696 185.344 413.696 413.696v145.408c0 228.352-185.344 413.696-413.696 413.696z" fill="#FF9A23" p-id="1450"></path><path d="M998.4 584.704V439.296c0-228.352-185.344-413.696-413.696-413.696H439.296C210.944 25.6 25.6 210.944 25.6 439.296v145.408c0 228.352 185.344 413.696 413.696 413.696h145.408c13.312 0 26.624-1.024 38.912-2.048 162.816-61.44 294.912-185.344 368.64-342.016 4.096-22.528 6.144-46.08 6.144-69.632z" fill="#FF9A23" p-id="1451"></path><path d="M584.704 25.6H439.296C210.944 25.6 25.6 210.944 25.6 439.296v145.408c0 158.72 90.112 296.96 222.208 366.592 45.056 10.24 91.136 16.384 139.264 16.384C715.776 967.68 983.04 700.416 983.04 371.712c0-17.408-1.024-34.816-2.048-51.2-51.2-171.008-208.896-294.912-396.288-294.912z" fill="#FF9F23" p-id="1452"></path><path d="M911.36 371.712c0-91.136-23.552-177.152-64.512-252.928-71.68-58.368-161.792-93.184-261.12-93.184H439.296C210.944 25.6 25.6 210.944 25.6 439.296v145.408c0 78.848 22.528 153.6 61.44 216.064 84.992 59.392 188.416 94.208 300.032 94.208C675.84 896 911.36 660.48 911.36 371.712z" fill="#FFA423" p-id="1453"></path><path d="M439.296 25.6C210.944 25.6 25.6 210.944 25.6 439.296v145.408c0 22.528 2.048 44.032 5.12 65.536 82.944 105.472 210.944 173.056 356.352 173.056C636.928 823.296 839.68 620.544 839.68 370.688 838.656 240.64 783.36 122.88 695.296 40.96c-34.816-9.216-71.68-15.36-109.568-15.36H439.296z" fill="#FFAA23" p-id="1454"></path><path d="M544.768 25.6H439.296C210.944 25.6 25.6 210.944 25.6 439.296v51.2c50.176 151.552 192.512 261.12 361.472 261.12 209.92 0 379.904-169.984 379.904-379.904 0-153.6-91.136-285.696-222.208-346.112z" fill="#FFAF23" p-id="1455"></path><path d="M387.072 371.712m-308.224 0a308.224 308.224 0 1 0 616.448 0 308.224 308.224 0 1 0-616.448 0Z" fill="#FFB423" p-id="1456"></path><path d="M157.972389 425.692529a235.52 235.52 0 1 0 458.432641-108.250615 235.52 235.52 0 1 0-458.432641 108.250615Z" fill="#FFB923" p-id="1457"></path><path d="M673.792 323.584H604.16c-3.072-14.336-16.384-25.6-31.744-25.6h-34.816c-5.12-10.24-14.336-17.408-26.624-17.408s-22.528 7.168-26.624 17.408H450.56c-15.36 0-28.672 11.264-31.744 25.6h-69.632c-18.432 0-31.744 15.36-31.744 32.768v353.28c0 18.432 14.336 32.768 31.744 32.768h324.608c17.408 0 32.768-15.36 32.768-32.768V357.376c1.024-18.432-14.336-33.792-32.768-33.792zM512 339.968c14.336 0 26.624 12.288 26.624 26.624 0 14.336-12.288 26.624-26.624 26.624-14.336 0-26.624-12.288-26.624-26.624 1.024-14.336 12.288-26.624 26.624-26.624z m-83.968 138.24h169.984c9.216 0 16.384 7.168 16.384 16.384s-7.168 16.384-16.384 16.384H428.032c-9.216 0-16.384-7.168-16.384-16.384s7.168-16.384 16.384-16.384z m169.984 144.384H428.032c-9.216 0-16.384-7.168-16.384-16.384 0-9.216 7.168-16.384 16.384-16.384h169.984c9.216 0 16.384 7.168 16.384 16.384 0 9.216-7.168 16.384-16.384 16.384z" fill="#FFFFFF" opacity=".8" p-id="1458"></path></svg>