<?xml version="1.0" standalone="no"?><!DOCTYPE svg PUBLIC "-//W3C//DTD SVG 1.1//EN" "http://www.w3.org/Graphics/SVG/1.1/DTD/svg11.dtd"><svg t="1649918055981" class="icon" viewBox="0 0 1024 1024" version="1.1" xmlns="http://www.w3.org/2000/svg" p-id="24618" xmlns:xlink="http://www.w3.org/1999/xlink" width="64" height="64"><defs><style type="text/css">@font-face { font-family: feedback-iconfont; src: url("//at.alicdn.com/t/font_1031158_u69w8yhxdu.woff2?t=1630033759944") format("woff2"), url("//at.alicdn.com/t/font_1031158_u69w8yhxdu.woff?t=1630033759944") format("woff"), url("//at.alicdn.com/t/font_1031158_u69w8yhxdu.ttf?t=1630033759944") format("truetype"); }
</style></defs><path d="M470.698 957.647c-9.3 0-18.5-1.8-27.1-5.2-28.2-11.1-46.7-38.4-46.8-68.7v-43.9c0-3.7-2.2-6.9-5.6-8.4l-0.5-0.2-0.7-0.3c-4.5-1.7-9.2-3.5-13.6-5.5l-6-2.6c-3.5-1.6-7.7-0.9-10.4 1.8l-31.1 31c-13.8 13.8-32.6 21.6-52.2 21.5-19.6 0.1-38.4-7.6-52.2-21.5l-58.6-58.6c-28.7-28.8-28.7-75.5 0-104.3l31.1-31c2.7-2.8 3.5-7 1.8-10.5-3-6.6-5.8-13.4-8.3-20.2 0-0.3-0.2-0.5-0.4-0.8-1.5-3.2-4.7-5.3-8.3-5.2h-43.9c-40.8 0-73.9-33.1-73.9-73.9v-83.2c0-40.8 33.1-73.9 73.9-73.9h43.9c3.9 0 7.3-2.5 8.6-6.1l1.4-3.5c2.2-5.6 4.5-11.2 6.9-16.7 1.7-3.5 1-7.7-1.8-10.4l-31.1-31c-13.8-13.8-21.5-32.6-21.5-52.2-0.1-19.6 7.7-38.4 21.5-52.2l58.8-58.8c28.8-28.7 75.4-28.7 104.2 0l31.1 31.1 0.3 0.3c2.8 2.5 6.8 3 10.1 1.4 6.6-3 13.4-5.8 20.2-8.3 1.3-0.5 2.5-1.3 3.5-2.3 1.7-1.7 2.6-4 2.5-6.4v-43.8c0-39.3 30.8-71.6 70-73.7h87c40.8 0 73.9 33.1 73.9 73.9v43.9c0 3.9 2.5 7.3 6.1 8.7 6.8 2.6 13.6 5.3 20.2 8.3 1.7 0.8 3.5 1.1 5.4 0.8 1.9-0.3 3.7-1.2 5.1-2.6l31.1-31c28.8-28.7 75.4-28.7 104.2 0l58.8 58.8c28.7 28.8 28.7 75.5 0 104.3l-31.1 31c-2.7 2.8-3.5 7-1.8 10.5 3 6.6 5.8 13.4 8.3 20.2 1.3 3.6 4.7 6.1 8.6 6.1h43.9c40.8 0 73.9 33.1 73.9 73.9v83.1c0 20.8-8.8 40.7-24.3 54.6a73.319 73.319 0 0 1-49.6 19.3h-43.9c-2.3 0-4.6 0.9-6.2 2.5-1 1-1.8 2.2-2.3 3.5l-0.6 1.4c-1.6 4.3-3.2 8.6-5.1 12.8-0.9 2-1.7 4-2.6 6a9.5 9.5 0 0 0 1.8 10.5l31.1 31c28.7 28.8 28.7 75.5 0 104.3l-58.8 58.8c-13.8 13.8-32.6 21.6-52.2 21.5-19.6 0.1-38.4-7.6-52.2-21.5l-31.1-31c-2.8-2.7-6.9-3.4-10.4-1.8-6.6 3-13.4 5.8-20.2 8.3l-0.7 0.3c-3.2 1.5-5.2 4.7-5.2 8.2v43.9c0 40.8-33.1 73.9-73.9 73.9l-83-0.2z" fill="#FF9D1C" p-id="24619"></path><path d="M590.298 412.947c-27.5-27.6-66-41.2-104.7-37.2-5.8 0.6-10 5.7-9.4 11.4 0.2 2.4 1.3 4.6 3 6.4l42.3 42.3c21 21.1 21 55.3 0 76.4l-15.3 15.3c-21.1 21-55.3 21-76.4 0l-42.3-42.3c-4.1-4.1-10.7-4-14.8 0.1-1.7 1.7-2.8 4-3 6.4-7.3 71.1 44.4 134.7 115.5 142 23.7 2.4 47.7-1.7 69.2-12l280.3 280.3c17.9 15.8 45.2 14.2 61-3.7 14.5-16.4 14.5-40.9 0-57.3l-280.2-280.6c23.7-49.6 13.6-108.7-25.2-147.5z" fill="#FFF1DF" p-id="24620"></path></svg>