<?xml version="1.0" standalone="no"?><!DOCTYPE svg PUBLIC "-//W3C//DTD SVG 1.1//EN" "http://www.w3.org/Graphics/SVG/1.1/DTD/svg11.dtd"><svg t="1649912421326" class="icon" viewBox="0 0 1024 1024" version="1.1" xmlns="http://www.w3.org/2000/svg" p-id="3155" xmlns:xlink="http://www.w3.org/1999/xlink" width="64" height="64"><defs><style type="text/css">@font-face { font-family: feedback-iconfont; src: url("//at.alicdn.com/t/font_1031158_u69w8yhxdu.woff2?t=1630033759944") format("woff2"), url("//at.alicdn.com/t/font_1031158_u69w8yhxdu.woff?t=1630033759944") format("woff"), url("//at.alicdn.com/t/font_1031158_u69w8yhxdu.ttf?t=1630033759944") format("truetype"); }
</style></defs><path d="M584.704 998.4H439.296c-228.352 0-413.696-185.344-413.696-413.696V439.296c0-228.352 185.344-413.696 413.696-413.696h145.408c228.352 0 413.696 185.344 413.696 413.696v145.408c0 228.352-185.344 413.696-413.696 413.696z" fill="#6370FF" p-id="3156"></path><path d="M998.4 584.704V439.296c0-228.352-185.344-413.696-413.696-413.696H439.296C210.944 25.6 25.6 210.944 25.6 439.296v145.408c0 228.352 185.344 413.696 413.696 413.696h145.408c13.312 0 26.624-1.024 38.912-2.048 162.816-61.44 294.912-185.344 368.64-342.016 4.096-22.528 6.144-46.08 6.144-69.632z" fill="#6370FF" p-id="3157"></path><path d="M998.4 460.8v-21.504c0-228.352-185.344-413.696-413.696-413.696H439.296C210.944 26.624 25.6 211.968 25.6 440.32v145.408c0 196.608 137.216 361.472 321.536 403.456 13.312 1.024 25.6 1.024 38.912 1.024 312.32 0 569.344-229.376 612.352-529.408z" fill="#6874FF" p-id="3158"></path><path d="M584.704 25.6H439.296C210.944 25.6 25.6 210.944 25.6 439.296v145.408c0 122.88 53.248 232.448 138.24 308.224 68.608 28.672 143.36 45.056 222.208 45.056 313.344 0 567.296-253.952 567.296-567.296 0-54.272-8.192-106.496-21.504-156.672-72.704-112.64-200.704-188.416-347.136-188.416z" fill="#6D79FF" p-id="3159"></path><path d="M904.192 380.928c0-96.256-26.624-187.392-72.704-264.192-68.608-51.2-153.6-80.896-245.76-80.896H439.296c-228.352-1.024-413.696 184.32-413.696 412.672V593.92c0 72.704 19.456 141.312 52.224 200.704 86.016 64.512 193.536 102.4 309.248 102.4 284.672 1.024 517.12-231.424 517.12-516.096z" fill="#717DFE" p-id="3160"></path><path d="M445.44 27.648c-226.304 0-409.6 185.344-409.6 413.696v145.408c0 32.768 4.096 64.512 11.264 94.208 87.04 100.352 218.112 161.792 361.472 157.696 250.88-8.192 449.536-220.16 447.488-471.04-1.024-122.88-49.152-234.496-126.976-317.44-43.008-15.36-90.112-24.576-138.24-24.576H445.44v2.048z" fill="#7681FE" p-id="3161"></path><path d="M25.6 439.296v139.264c70.656 123.904 204.8 207.872 357.376 208.896 228.352 2.048 418.816-185.344 419.84-414.72 0-144.384-71.68-270.336-182.272-345.088-11.264-1.024-23.552-2.048-35.84-2.048H439.296C210.944 25.6 25.6 210.944 25.6 439.296z" fill="#7B86FE" p-id="3162"></path><path d="M510.976 25.6h-66.56C219.136 25.6 35.84 205.824 30.72 430.08c29.696 185.344 198.656 323.584 394.24 305.152 184.32-17.408 328.704-173.056 331.776-357.376 2.048-163.84-100.352-302.08-245.76-352.256z" fill="#808AFE" p-id="3163"></path><path d="M392.192 375.808m-315.392 0a315.392 315.392 0 1 0 630.784 0 315.392 315.392 0 1 0-630.784 0Z" fill="#848EFD" p-id="3164"></path><path d="M392.192 375.808m-264.192 0a264.192 264.192 0 1 0 528.384 0 264.192 264.192 0 1 0-528.384 0Z" fill="#8993FD" p-id="3165"></path><path d="M392.192 375.808m-214.016 0a214.016 214.016 0 1 0 428.032 0 214.016 214.016 0 1 0-428.032 0Z" fill="#8E97FD" p-id="3166"></path><path d="M755.712 360.448v279.552c0 20.48-16.384 36.864-36.864 36.864H578.56c-3.072 0-7.168 1.024-10.24 3.072l-7.168 4.096c-13.312 8.192-29.696-2.048-29.696-16.384V358.4c0-7.168 3.072-13.312 9.216-16.384 20.48-12.288 45.056-19.456 69.632-19.456h107.52c20.48 1.024 37.888 17.408 37.888 37.888z m-272.384-18.432c6.144 3.072 9.216 10.24 9.216 16.384v308.224c0 15.36-16.384 24.576-29.696 16.384l-7.168-4.096c-3.072-2.048-6.144-3.072-10.24-3.072H306.176c-20.48 0-37.888-16.384-37.888-37.888V368.64c0-25.6 20.48-46.08 46.08-46.08h99.328c24.576 1.024 48.128 7.168 69.632 19.456z m191.488 168.96H614.4c-10.24 0-19.456 8.192-19.456 19.456 0 10.24 8.192 19.456 19.456 19.456h60.416c10.24 0 19.456-8.192 19.456-19.456 0-11.264-8.192-19.456-19.456-19.456z m-265.216 0h-60.416c-10.24 0-19.456 8.192-19.456 19.456 0 10.24 8.192 19.456 19.456 19.456H409.6c10.24 0 19.456-8.192 19.456-19.456 0-11.264-8.192-19.456-19.456-19.456z m265.216-74.752H614.4c-10.24 0-19.456 8.192-19.456 19.456 0 10.24 8.192 19.456 19.456 19.456h60.416c10.24 0 19.456-8.192 19.456-19.456 0-10.24-8.192-19.456-19.456-19.456z m-265.216 0h-60.416c-10.24 0-19.456 8.192-19.456 19.456 0 10.24 8.192 19.456 19.456 19.456H409.6c10.24 0 19.456-8.192 19.456-19.456 0-10.24-8.192-19.456-19.456-19.456z" fill="#FFFFFF" opacity=".8" p-id="3167"></path></svg>