<?xml version="1.0" standalone="no"?><!DOCTYPE svg PUBLIC "-//W3C//DTD SVG 1.1//EN" "http://www.w3.org/Graphics/SVG/1.1/DTD/svg11.dtd"><svg t="1651896483779" class="icon" viewBox="0 0 1024 1024" version="1.1" xmlns="http://www.w3.org/2000/svg" p-id="1365" xmlns:xlink="http://www.w3.org/1999/xlink" width="64" height="64"><defs><style type="text/css">@font-face { font-family: feedback-iconfont; src: url("//at.alicdn.com/t/font_1031158_u69w8yhxdu.woff2?t=1630033759944") format("woff2"), url("//at.alicdn.com/t/font_1031158_u69w8yhxdu.woff?t=1630033759944") format("woff"), url("//at.alicdn.com/t/font_1031158_u69w8yhxdu.ttf?t=1630033759944") format("truetype"); }
</style></defs><path d="M584.704 998.4H439.296c-228.352 0-413.696-185.344-413.696-413.696V439.296c0-228.352 185.344-413.696 413.696-413.696h145.408c228.352 0 413.696 185.344 413.696 413.696v145.408c0 228.352-185.344 413.696-413.696 413.696z" fill="#FF9A23" p-id="1366"></path><path d="M998.4 584.704V439.296c0-228.352-185.344-413.696-413.696-413.696H439.296C210.944 25.6 25.6 210.944 25.6 439.296v145.408c0 228.352 185.344 413.696 413.696 413.696h145.408c13.312 0 26.624-1.024 38.912-2.048 162.816-61.44 294.912-185.344 368.64-342.016 4.096-22.528 6.144-46.08 6.144-69.632z" fill="#FF9A23" p-id="1367"></path><path d="M584.704 25.6H439.296C210.944 25.6 25.6 210.944 25.6 439.296v145.408c0 158.72 90.112 296.96 222.208 366.592 45.056 10.24 91.136 16.384 139.264 16.384C715.776 967.68 983.04 700.416 983.04 371.712c0-17.408-1.024-34.816-2.048-51.2-51.2-171.008-208.896-294.912-396.288-294.912z" fill="#FF9F23" p-id="1368"></path><path d="M911.36 371.712c0-91.136-23.552-177.152-64.512-252.928-71.68-58.368-161.792-93.184-261.12-93.184H439.296C210.944 25.6 25.6 210.944 25.6 439.296v145.408c0 78.848 22.528 153.6 61.44 216.064 84.992 59.392 188.416 94.208 300.032 94.208C675.84 896 911.36 660.48 911.36 371.712z" fill="#FFA423" p-id="1369"></path><path d="M439.296 25.6C210.944 25.6 25.6 210.944 25.6 439.296v145.408c0 22.528 2.048 44.032 5.12 65.536 82.944 105.472 210.944 173.056 356.352 173.056C636.928 823.296 839.68 620.544 839.68 370.688 838.656 240.64 783.36 122.88 695.296 40.96c-34.816-9.216-71.68-15.36-109.568-15.36H439.296z" fill="#FFAA23" p-id="1370"></path><path d="M544.768 25.6H439.296C210.944 25.6 25.6 210.944 25.6 439.296v51.2c52.224 158.72 205.824 271.36 385.024 260.096 189.44-11.264 343.04-163.84 355.328-353.28 11.264-163.84-82.944-308.224-221.184-371.712z" fill="#FFAF23" p-id="1371"></path><path d="M391.168 375.808m-308.224 0a308.224 308.224 0 1 0 616.448 0 308.224 308.224 0 1 0-616.448 0Z" fill="#FFB423" p-id="1372"></path><path d="M155.648 374.784a235.52 235.52 0 1 0 471.04 0 235.52 235.52 0 1 0-471.04 0Z" fill="#FFB923" p-id="1373"></path><path d="M681.984 340.992c-107.52-107.52-300.032-91.136-380.928 52.224-41.984 72.704-41.984 164.864 0 237.568 80.896 142.336 272.384 159.744 380.928 52.224 93.184-93.184 96.256-248.832 0-342.016zM568.32 572.416c-14.336 14.336-27.648 29.696-37.888 44.032-9.216 12.288-27.648 12.288-36.864 0-11.264-14.336-24.576-29.696-39.936-44.032-15.36-15.36-30.72-29.696-46.08-40.96-11.264-8.192-11.264-25.6 1.024-33.792 15.36-10.24 30.72-23.552 46.08-37.888 16.384-16.384 30.72-34.816 43.008-51.2 7.168-9.216 21.504-9.216 28.672 0 11.264 16.384 25.6 33.792 41.984 50.176 14.336 14.336 30.72 27.648 45.056 38.912 11.264 8.192 12.288 25.6 0 33.792-14.336 10.24-29.696 23.552-45.056 40.96z" fill="#FFFFFF" opacity=".8" p-id="1374"></path></svg>