<?xml version="1.0" standalone="no"?><!DOCTYPE svg PUBLIC "-//W3C//DTD SVG 1.1//EN" "http://www.w3.org/Graphics/SVG/1.1/DTD/svg11.dtd"><svg t="1649912671339" class="icon" viewBox="0 0 1024 1024" version="1.1" xmlns="http://www.w3.org/2000/svg" p-id="3658" xmlns:xlink="http://www.w3.org/1999/xlink" width="64" height="64"><defs><style type="text/css">@font-face { font-family: feedback-iconfont; src: url("//at.alicdn.com/t/font_1031158_u69w8yhxdu.woff2?t=1630033759944") format("woff2"), url("//at.alicdn.com/t/font_1031158_u69w8yhxdu.woff?t=1630033759944") format("woff"), url("//at.alicdn.com/t/font_1031158_u69w8yhxdu.ttf?t=1630033759944") format("truetype"); }
</style></defs><path d="M584.704 998.4H439.296c-228.352 0-413.696-185.344-413.696-413.696V439.296c0-228.352 185.344-413.696 413.696-413.696h145.408c228.352 0 413.696 185.344 413.696 413.696v145.408c0 228.352-185.344 413.696-413.696 413.696z" fill="#24C570" p-id="3659"></path><path d="M998.4 584.704V439.296c0-228.352-185.344-413.696-413.696-413.696H439.296C210.944 25.6 25.6 210.944 25.6 439.296v145.408c0 228.352 185.344 413.696 413.696 413.696h145.408c13.312 0 26.624-1.024 38.912-2.048 162.816-62.464 295.936-184.32 368.64-342.016 4.096-21.504 6.144-45.056 6.144-69.632z" fill="#24C570" p-id="3660"></path><path d="M998.4 506.88v-67.584c0-228.352-185.344-413.696-413.696-413.696H439.296C210.944 25.6 25.6 210.944 25.6 439.296v145.408C25.6 803.84 195.584 983.04 409.6 997.376c289.792-11.264 528.384-217.088 588.8-490.496z" fill="#28C775" p-id="3661"></path><path d="M584.704 25.6H439.296C210.944 25.6 25.6 210.944 25.6 439.296v145.408c0 142.336 72.704 268.288 182.272 343.04 56.32 18.432 116.736 27.648 179.2 27.648 323.584 0 584.704-261.12 584.704-584.704 0-33.792-4.096-67.584-8.192-101.376-66.56-142.336-210.944-243.712-378.88-243.712z" fill="#2BCA79" p-id="3662"></path><path d="M584.704 25.6H439.296C210.944 25.6 25.6 210.944 25.6 439.296v145.408c0 96.256 32.768 184.32 89.088 254.976 79.872 46.08 174.08 73.728 272.384 73.728 299.008 0 542.72-243.712 542.72-542.72 0-77.824-17.408-151.552-46.08-219.136C807.936 74.752 701.44 25.6 584.704 25.6z" fill="#2FCC7E" p-id="3663"></path><path d="M882.688 431.104c15.36-129.024-20.48-250.88-88.064-347.136-62.464-36.864-134.144-58.368-209.92-58.368H439.296C210.944 25.6 25.6 210.944 25.6 439.296v146.432a419.84 419.84 0 0 0 33.792 164.864c93.184 79.872 215.04 126.976 349.184 120.832 243.712-10.24 446.464-198.656 474.112-440.32z" fill="#32CF82" p-id="3664"></path><path d="M439.296 25.6C210.944 25.6 25.6 210.944 25.6 439.296v145.408c0 26.624 2.048 52.224 7.168 77.824C116.736 764.928 244.736 829.44 388.096 829.44c239.616-1.024 441.344-190.464 456.704-430.08 8.192-138.24-46.08-266.24-137.216-355.328-38.912-12.288-79.872-18.432-122.88-18.432H439.296z" fill="#36D187" p-id="3665"></path><path d="M25.6 439.296v138.24c93.184 163.84 294.912 257.024 506.88 184.32 125.952-43.008 222.208-148.48 254.976-277.504 49.152-189.44-28.672-362.496-167.936-457.728-12.288-1.024-24.576-1.024-36.864-1.024H438.272C210.944 25.6 25.6 210.944 25.6 439.296z" fill="#39D48B" p-id="3666"></path><path d="M530.432 25.6h-91.136C210.944 25.6 25.6 210.944 25.6 439.296v30.72c43.008 159.744 188.416 276.48 361.472 276.48 206.848 0 374.784-167.936 374.784-374.784C759.808 215.04 665.6 81.92 530.432 25.6z" fill="#3DD690" p-id="3667"></path><path d="M381.952 40.96c-33.792 0-66.56 5.12-98.304 14.336C208.896 84.992 146.432 133.12 100.352 196.608c-31.744 51.2-50.176 110.592-50.176 175.104 0 183.296 148.48 331.776 331.776 331.776 183.296 1.024 331.776-147.456 331.776-330.752S565.248 40.96 381.952 40.96z" fill="#40D994" p-id="3668"></path><path d="M381.952 372.736m-289.792 0a289.792 289.792 0 1 0 579.584 0 289.792 289.792 0 1 0-579.584 0Z" fill="#44DB99" p-id="3669"></path><path d="M381.952 372.736m-247.808 0a247.808 247.808 0 1 0 495.616 0 247.808 247.808 0 1 0-495.616 0Z" fill="#47DE9D" p-id="3670"></path><path d="M381.952 372.736m-205.824 0a205.824 205.824 0 1 0 411.648 0 205.824 205.824 0 1 0-411.648 0Z" fill="#4BE0A2" p-id="3671"></path><path d="M750.592 433.152l-67.584-114.688c-9.216-16.384-27.648-26.624-46.08-26.624H388.096c-19.456 0-36.864 10.24-46.08 26.624l-67.584 114.688c-12.288 20.48-9.216 45.056 6.144 62.464l191.488 217.088c10.24 11.264 24.576 18.432 39.936 18.432s29.696-6.144 39.936-18.432l191.488-217.088c16.384-16.384 18.432-41.984 7.168-62.464zM634.88 486.4L527.36 592.896c-9.216 8.192-22.528 8.192-31.744 0L389.12 486.4c-9.216-9.216-9.216-22.528 0-31.744 9.216-9.216 22.528-9.216 31.744 0l91.136 91.136 91.136-91.136c9.216-9.216 22.528-9.216 31.744 0 8.192 8.192 8.192 22.528 0 31.744z" fill="#FFFFFF" opacity=".8" p-id="3672"></path></svg>