<?xml version="1.0" standalone="no"?><!DOCTYPE svg PUBLIC "-//W3C//DTD SVG 1.1//EN" "http://www.w3.org/Graphics/SVG/1.1/DTD/svg11.dtd"><svg t="1649913303837" class="icon" viewBox="0 0 1024 1024" version="1.1" xmlns="http://www.w3.org/2000/svg" p-id="3996" xmlns:xlink="http://www.w3.org/1999/xlink" width="64" height="64"><defs><style type="text/css">@font-face { font-family: feedback-iconfont; src: url("//at.alicdn.com/t/font_1031158_u69w8yhxdu.woff2?t=1630033759944") format("woff2"), url("//at.alicdn.com/t/font_1031158_u69w8yhxdu.woff?t=1630033759944") format("woff"), url("//at.alicdn.com/t/font_1031158_u69w8yhxdu.ttf?t=1630033759944") format("truetype"); }
</style></defs><path d="M584.704 998.4H439.296c-228.352 0-413.696-185.344-413.696-413.696V439.296c0-228.352 185.344-413.696 413.696-413.696h145.408c228.352 0 413.696 185.344 413.696 413.696v145.408c0 228.352-185.344 413.696-413.696 413.696z" fill="#FF5D15" p-id="3997"></path><path d="M998.4 584.704V439.296c0-228.352-185.344-413.696-413.696-413.696H439.296C210.944 25.6 25.6 210.944 25.6 439.296v145.408c0 228.352 185.344 413.696 413.696 413.696h145.408c13.312 0 26.624-1.024 38.912-2.048 162.816-61.44 294.912-185.344 368.64-342.016 4.096-22.528 6.144-46.08 6.144-69.632z" fill="#FF5D15" p-id="3998"></path><path d="M998.4 490.496v-51.2c0-228.352-185.344-413.696-413.696-413.696H439.296C210.944 26.624 25.6 212.992 25.6 442.368v146.432c0 208.896 152.576 380.928 352.256 410.624h9.216c304.128 0 557.056-219.136 611.328-508.928z" fill="#FF621C" p-id="3999"></path><path d="M584.704 25.6H439.296C210.944 25.6 25.6 210.944 25.6 439.296v145.408c0 133.12 63.488 251.904 161.792 327.68 62.464 22.528 129.024 35.84 199.68 35.84 318.464 0 576.512-258.048 576.512-576.512 0-44.032-5.12-87.04-14.336-128C879.616 113.664 742.4 25.6 584.704 25.6z" fill="#FF6622" p-id="4000"></path><path d="M917.504 371.712c0-87.04-20.48-168.96-58.368-240.64C786.432 65.536 690.176 25.6 584.704 25.6H439.296C210.944 25.6 25.6 210.944 25.6 439.296v145.408c0 84.992 25.6 164.864 69.632 230.4 83.968 55.296 183.296 87.04 290.816 87.04 293.888 0 531.456-237.568 531.456-530.432z" fill="#FF6B29" p-id="4001"></path><path d="M435.2 26.624c-226.304 0-409.6 185.344-409.6 413.696v145.408c0 46.08 8.192 91.136 21.504 133.12 95.232 94.208 231.424 149.504 379.904 136.192 233.472-21.504 417.792-212.992 435.2-446.464 9.216-130.048-32.768-250.88-106.496-342.016-53.248-25.6-113.664-40.96-176.128-40.96l-144.384 1.024z" fill="#FF6F30" p-id="4002"></path><path d="M439.296 25.6C210.944 25.6 25.6 210.944 25.6 439.296v145.408c0 13.312 1.024 25.6 2.048 38.912C108.544 737.28 241.664 812.032 392.192 809.984c227.328-2.048 418.816-182.272 433.152-409.6 9.216-146.432-53.248-280.576-156.672-366.592-26.624-5.12-54.272-8.192-82.944-8.192H439.296z" fill="#FF7437" p-id="4003"></path><path d="M574.464 25.6H439.296C210.944 25.6 25.6 210.944 25.6 439.296v88.064c62.464 144.384 208.896 242.688 377.856 236.544C596.992 755.712 757.76 605.184 778.24 412.672c17.408-165.888-70.656-314.368-203.776-387.072z" fill="#FF793D" p-id="4004"></path><path d="M422.912 26.624C242.688 33.792 92.16 155.648 41.984 320.512c-2.048 16.384-4.096 33.792-4.096 51.2 0 192.512 155.648 348.16 348.16 348.16 191.488 0 347.136-155.648 347.136-347.136 0-179.2-136.192-326.656-310.272-346.112z" fill="#FF7D44" p-id="4005"></path><path d="M84.992 371.712a301.056 301.056 0 1 0 602.112 0 301.056 301.056 0 1 0-602.112 0Z" fill="#FF824B" p-id="4006"></path><path d="M386.048 372.736m-254.976 0a254.976 254.976 0 1 0 509.952 0 254.976 254.976 0 1 0-509.952 0Z" fill="#FF8651" p-id="4007"></path><path d="M176.128 372.736a209.92 209.92 0 1 0 419.84 0 209.92 209.92 0 1 0-419.84 0Z" fill="#FF8B58" p-id="4008"></path><path d="M620.544 295.936c82.944 0 132.096 48.128 132.096 129.024h-101.376v1.024c-47.104 0-86.016 36.864-86.016 82.944s37.888 82.944 86.016 82.944h101.376v7.168c0 80.896-49.152 128-132.096 128H403.456c-82.944 0-132.096-48.128-132.096-128V423.936c0-80.896 49.152-128 132.096-128h217.088zM734.208 460.8c10.24 0 18.432 8.192 18.432 17.408v60.416c0 10.24-8.192 17.408-18.432 17.408h-81.92c-23.552 0-45.056-15.36-50.176-37.888-3.072-14.336 1.024-28.672 10.24-39.936s23.552-17.408 37.888-17.408h83.968z m-71.68 27.648h-8.192c-5.12 0-9.216 2.048-13.312 5.12-3.072 3.072-5.12 8.192-5.12 12.288 0 10.24 8.192 18.432 18.432 18.432h8.192c10.24 0 18.432-8.192 18.432-18.432 0-9.216-8.192-17.408-18.432-17.408zM521.216 389.12H385.024c-10.24 0-18.432 8.192-18.432 17.408 0 10.24 8.192 18.432 18.432 18.432h136.192c10.24 0 18.432-8.192 18.432-18.432 0-9.216-8.192-17.408-18.432-17.408z" fill="#FFFFFF" opacity=".8" p-id="4009"></path></svg>