<?xml version="1.0" standalone="no"?><!DOCTYPE svg PUBLIC "-//W3C//DTD SVG 1.1//EN" "http://www.w3.org/Graphics/SVG/1.1/DTD/svg11.dtd"><svg t="1649912408311" class="icon" viewBox="0 0 1024 1024" version="1.1" xmlns="http://www.w3.org/2000/svg" p-id="2817" xmlns:xlink="http://www.w3.org/1999/xlink" width="64" height="64"><defs><style type="text/css">@font-face { font-family: feedback-iconfont; src: url("//at.alicdn.com/t/font_1031158_u69w8yhxdu.woff2?t=1630033759944") format("woff2"), url("//at.alicdn.com/t/font_1031158_u69w8yhxdu.woff?t=1630033759944") format("woff"), url("//at.alicdn.com/t/font_1031158_u69w8yhxdu.ttf?t=1630033759944") format("truetype"); }
</style></defs><path d="M584.704 998.4H439.296c-228.352 0-413.696-185.344-413.696-413.696V439.296c0-228.352 185.344-413.696 413.696-413.696h145.408c228.352 0 413.696 185.344 413.696 413.696v145.408c0 228.352-185.344 413.696-413.696 413.696z" fill="#FF4958" p-id="2818"></path><path d="M998.4 584.704V439.296c0-228.352-185.344-413.696-413.696-413.696H439.296C210.944 25.6 25.6 210.944 25.6 439.296v145.408c0 228.352 185.344 413.696 413.696 413.696h145.408c13.312 0 26.624-1.024 38.912-2.048 162.816-61.44 294.912-185.344 368.64-342.016 4.096-22.528 6.144-46.08 6.144-69.632z" fill="#FF4958" p-id="2819"></path><path d="M998.4 506.88v-67.584c0-228.352-185.344-413.696-413.696-413.696H439.296C210.944 25.6 25.6 210.944 25.6 439.296v145.408c0 219.136 169.984 398.336 385.024 412.672 288.768-11.264 527.36-217.088 587.776-490.496z" fill="#FF4F5D" p-id="2820"></path><path d="M584.704 25.6H439.296C210.944 25.6 25.6 210.944 25.6 439.296v145.408c0 143.36 72.704 269.312 183.296 343.04 56.32 17.408 115.712 27.648 178.176 27.648 322.56 0 584.704-262.144 584.704-584.704 0-34.816-3.072-67.584-9.216-100.352C898.048 125.952 752.64 25.6 584.704 25.6z" fill="#FF5463" p-id="2821"></path><path d="M584.704 25.6H439.296C210.944 25.6 25.6 210.944 25.6 439.296v145.408c0 96.256 32.768 185.344 88.064 256 81.92 48.128 177.152 74.752 279.552 73.728 296.96-4.096 538.624-250.88 535.552-547.84-1.024-75.776-17.408-147.456-46.08-212.992C807.936 74.752 702.464 25.6 584.704 25.6z" fill="#FF5A68" p-id="2822"></path><path d="M874.496 490.496c34.816-153.6 0-294.912-77.824-406.528-61.44-36.864-134.144-58.368-210.944-58.368H439.296C210.944 26.624 25.6 211.968 25.6 440.32v145.408c0 59.392 12.288 114.688 34.816 165.888 126.976 109.568 313.344 157.696 503.808 90.112 156.672-55.296 273.408-189.44 310.272-351.232z" fill="#FF606D" p-id="2823"></path><path d="M439.296 25.6C210.944 25.6 25.6 210.944 25.6 439.296v145.408c0 26.624 3.072 53.248 7.168 77.824C116.736 764.928 244.736 829.44 387.072 829.44c252.928 0 458.752-204.8 458.752-458.752 0-128-52.224-243.712-137.216-326.656-38.912-12.288-79.872-18.432-122.88-18.432H439.296z" fill="#FF6672" p-id="2824"></path><path d="M25.6 439.296v139.264c70.656 123.904 204.8 207.872 357.376 208.896 228.352 2.048 418.816-185.344 419.84-414.72 0-144.384-71.68-270.336-182.272-345.088-12.288-1.024-23.552-2.048-35.84-2.048H439.296C210.944 25.6 25.6 210.944 25.6 439.296z" fill="#FF6B78" p-id="2825"></path><path d="M529.408 25.6h-90.112C210.944 25.6 25.6 210.944 25.6 439.296v29.696c43.008 158.72 188.416 276.48 361.472 276.48 206.848 0 373.76-167.936 373.76-373.76C760.832 215.04 665.6 81.92 529.408 25.6z" fill="#FF717D" p-id="2826"></path><path d="M384 41.984c-33.792 0-66.56 5.12-97.28 14.336-74.752 29.696-139.264 79.872-186.368 144.384-30.72 50.176-48.128 109.568-48.128 173.056 0 183.296 148.48 331.776 331.776 331.776s331.776-148.48 331.776-331.776S567.296 41.984 384 41.984z" fill="#FF7782" p-id="2827"></path><path d="M384 374.784m-289.792 0a289.792 289.792 0 1 0 579.584 0 289.792 289.792 0 1 0-579.584 0Z" fill="#FF7D87" p-id="2828"></path><path d="M136.192 374.784a247.808 247.808 0 1 0 495.616 0 247.808 247.808 0 1 0-495.616 0Z" fill="#FF828D" p-id="2829"></path><path d="M384 374.784m-205.824 0a205.824 205.824 0 1 0 411.648 0 205.824 205.824 0 1 0-411.648 0Z" fill="#FF8892" p-id="2830"></path><path d="M510.976 381.952c92.16 0 167.936 74.752 167.936 167.936 0 6.144 0 12.288-1.024 18.432-19.456 9.216-39.936 15.36-61.44 20.48-19.456 4.096-38.912 7.168-60.416 9.216-5.12-9.216-15.36-15.36-26.624-15.36h-33.792c-16.384 0-29.696 13.312-29.696 29.696 0 16.384 13.312 29.696 29.696 29.696h33.792c12.288 0 23.552-7.168 27.648-18.432 22.528-2.048 44.032-5.12 64.512-10.24 17.408-4.096 32.768-9.216 49.152-15.36-20.48 68.608-83.968 118.784-159.744 118.784-92.16 0-167.936-74.752-167.936-167.936s75.776-166.912 167.936-166.912z m2.048-74.752c-67.584 0-128 27.648-172.032 71.68-28.672 28.672-49.152 63.488-61.44 102.4h-8.192c-19.456 0-35.84 16.384-35.84 35.84v55.296c0 19.456 16.384 35.84 35.84 35.84h47.104v-122.88c10.24-30.72 27.648-58.368 50.176-79.872 36.864-36.864 88.064-60.416 145.408-60.416s107.52 22.528 145.408 60.416c21.504 21.504 37.888 47.104 48.128 75.776v126.976h46.08c19.456 0 35.84-16.384 35.84-35.84v-56.32c0-19.456-16.384-35.84-35.84-35.84h-7.168c-11.264-38.912-32.768-73.728-61.44-102.4-44.032-43.008-105.472-70.656-172.032-70.656z" fill="#FFFFFF" opacity=".8" p-id="2831"></path></svg>