<?xml version="1.0" standalone="no"?><!DOCTYPE svg PUBLIC "-//W3C//DTD SVG 1.1//EN" "http://www.w3.org/Graphics/SVG/1.1/DTD/svg11.dtd"><svg t="1649912417355" class="icon" viewBox="0 0 1024 1024" version="1.1" xmlns="http://www.w3.org/2000/svg" p-id="2986" xmlns:xlink="http://www.w3.org/1999/xlink" width="64" height="64"><defs><style type="text/css">@font-face { font-family: feedback-iconfont; src: url("//at.alicdn.com/t/font_1031158_u69w8yhxdu.woff2?t=1630033759944") format("woff2"), url("//at.alicdn.com/t/font_1031158_u69w8yhxdu.woff?t=1630033759944") format("woff"), url("//at.alicdn.com/t/font_1031158_u69w8yhxdu.ttf?t=1630033759944") format("truetype"); }
</style></defs><path d="M584.704 998.4H439.296c-228.352 0-413.696-185.344-413.696-413.696V439.296c0-228.352 185.344-413.696 413.696-413.696h145.408c228.352 0 413.696 185.344 413.696 413.696v145.408c0 228.352-185.344 413.696-413.696 413.696z" fill="#4889FD" p-id="2987"></path><path d="M998.4 584.704V439.296c0-228.352-185.344-413.696-413.696-413.696H439.296C210.944 25.6 25.6 210.944 25.6 439.296v145.408c0 228.352 185.344 413.696 413.696 413.696h145.408c13.312 0 26.624-1.024 38.912-2.048 162.816-61.44 294.912-185.344 368.64-342.016 4.096-22.528 6.144-46.08 6.144-69.632z" fill="#4889FD" p-id="2988"></path><path d="M998.4 506.88v-67.584c0-228.352-185.344-413.696-413.696-413.696H439.296C210.944 25.6 25.6 210.944 25.6 439.296v145.408c0 219.136 169.984 398.336 385.024 412.672 288.768-11.264 527.36-217.088 587.776-490.496z" fill="#4D8DFD" p-id="2989"></path><path d="M584.704 25.6H439.296C210.944 25.6 25.6 210.944 25.6 439.296v145.408c0 143.36 72.704 269.312 183.296 343.04 56.32 17.408 115.712 27.648 178.176 27.648 322.56 0 584.704-262.144 584.704-584.704 0-34.816-3.072-67.584-9.216-100.352C898.048 125.952 752.64 25.6 584.704 25.6z" fill="#5191FD" p-id="2990"></path><path d="M584.704 25.6H439.296C210.944 25.6 25.6 210.944 25.6 439.296v145.408c0 96.256 32.768 185.344 88.064 256 81.92 48.128 177.152 74.752 279.552 73.728 296.96-4.096 538.624-250.88 535.552-547.84-1.024-75.776-17.408-147.456-46.08-212.992C807.936 74.752 702.464 25.6 584.704 25.6z" fill="#5695FE" p-id="2991"></path><path d="M874.496 490.496c34.816-153.6 0-294.912-77.824-406.528-61.44-36.864-134.144-58.368-210.944-58.368H439.296C210.944 26.624 25.6 211.968 25.6 440.32v145.408c0 59.392 12.288 114.688 34.816 165.888 126.976 109.568 313.344 157.696 503.808 90.112 156.672-55.296 273.408-189.44 310.272-351.232z" fill="#5B99FE" p-id="2992"></path><path d="M439.296 25.6C210.944 25.6 25.6 210.944 25.6 439.296v145.408c0 26.624 3.072 53.248 7.168 77.824C116.736 764.928 244.736 829.44 387.072 829.44c252.928 0 458.752-204.8 458.752-458.752 0-128-52.224-243.712-137.216-326.656-38.912-12.288-79.872-18.432-122.88-18.432H439.296z" fill="#609DFE" p-id="2993"></path><path d="M25.6 439.296v139.264c70.656 123.904 204.8 207.872 357.376 208.896 228.352 2.048 418.816-185.344 419.84-414.72 0-144.384-71.68-270.336-182.272-345.088-12.288-1.024-23.552-2.048-35.84-2.048H439.296C210.944 25.6 25.6 210.944 25.6 439.296z" fill="#64A2FE" p-id="2994"></path><path d="M529.408 25.6h-90.112C210.944 25.6 25.6 210.944 25.6 439.296v29.696c43.008 158.72 188.416 276.48 361.472 276.48 206.848 0 373.76-167.936 373.76-373.76C760.832 215.04 665.6 81.92 529.408 25.6z" fill="#69A6FE" p-id="2995"></path><path d="M388.096 38.912c-33.792 0-66.56 5.12-97.28 14.336-74.752 29.696-139.264 79.872-186.368 144.384-30.72 50.176-48.128 109.568-48.128 173.056 0 183.296 148.48 331.776 331.776 331.776s331.776-148.48 331.776-331.776S571.392 38.912 388.096 38.912z" fill="#6EAAFE" p-id="2996"></path><path d="M388.096 371.712m-289.792 0a289.792 289.792 0 1 0 579.584 0 289.792 289.792 0 1 0-579.584 0Z" fill="#73AEFF" p-id="2997"></path><path d="M140.288 371.712a247.808 247.808 0 1 0 495.616 0 247.808 247.808 0 1 0-495.616 0Z" fill="#77B2FF" p-id="2998"></path><path d="M388.096 371.712m-205.824 0a205.824 205.824 0 1 0 411.648 0 205.824 205.824 0 1 0-411.648 0Z" fill="#7CB6FF" p-id="2999"></path><path d="M622.592 716.8c-142.336-5.12-317.44-163.84-311.296-334.848 2.048-47.104 41.984-84.992 89.088-82.944 47.104 2.048 84.992 41.984 82.944 89.088-1.024 28.672-16.384 55.296-40.96 69.632-2.048 1.024-4.096 4.096-3.072 7.168 4.096 59.392 49.152 109.568 108.544 119.808 3.072 0 6.144-1.024 7.168-3.072 16.384-24.576 44.032-37.888 73.728-36.864 47.104 2.048 84.992 41.984 82.944 89.088-1.024 47.104-40.96 84.992-89.088 82.944" fill="#FFFFFF" opacity=".8" p-id="3000"></path></svg>