<?xml version="1.0" standalone="no"?><!DOCTYPE svg PUBLIC "-//W3C//DTD SVG 1.1//EN" "http://www.w3.org/Graphics/SVG/1.1/DTD/svg11.dtd"><svg t="1661226394526" class="icon" viewBox="0 0 1024 1024" version="1.1" xmlns="http://www.w3.org/2000/svg" p-id="1233" xmlns:xlink="http://www.w3.org/1999/xlink" width="81" height="81"><defs><style type="text/css">@font-face { font-family: feedback-iconfont; src: url("//at.alicdn.com/t/font_1031158_u69w8yhxdu.woff2?t=1630033759944") format("woff2"), url("//at.alicdn.com/t/font_1031158_u69w8yhxdu.woff?t=1630033759944") format("woff"), url("//at.alicdn.com/t/font_1031158_u69w8yhxdu.ttf?t=1630033759944") format("truetype"); }
</style></defs><path d="M584.704 998.4H439.296c-228.352 0-413.696-185.344-413.696-413.696V439.296c0-228.352 185.344-413.696 413.696-413.696h145.408c228.352 0 413.696 185.344 413.696 413.696v145.408c0 228.352-185.344 413.696-413.696 413.696z" fill="#9AC524" p-id="1234"></path><path d="M998.4 584.704V439.296c0-228.352-185.344-413.696-413.696-413.696H439.296C210.944 25.6 25.6 210.944 25.6 439.296v145.408c0 228.352 185.344 413.696 413.696 413.696h145.408c13.312 0 26.624-1.024 38.912-2.048 162.816-61.44 294.912-185.344 368.64-342.016 4.096-22.528 6.144-46.08 6.144-69.632z" fill="#9AC524" p-id="1235"></path><path d="M997.376 414.72c-13.312-217.088-192.512-389.12-412.672-389.12H439.296C210.944 25.6 25.6 210.944 25.6 439.296v145.408c0 185.344 121.856 342.016 289.792 394.24 23.552 3.072 47.104 4.096 70.656 4.096 324.608 1.024 589.824-250.88 611.328-568.32z" fill="#9EC829" p-id="1236"></path><path d="M584.704 25.6H439.296C210.944 25.6 25.6 210.944 25.6 439.296v145.408c0 110.592 43.008 210.944 113.664 284.672 86.016 41.984 184.32 63.488 286.72 56.32 294.912-20.48 524.288-274.432 516.096-570.368-2.048-59.392-12.288-116.736-31.744-171.008C835.584 88.064 717.824 25.6 584.704 25.6z" fill="#A2CC2E" p-id="1237"></path><path d="M887.808 380.928c2.048-111.616-31.744-215.04-91.136-297.984-61.44-36.864-134.144-57.344-210.944-57.344H439.296C210.944 25.6 25.6 210.944 25.6 439.296v145.408c0 58.368 12.288 114.688 34.816 164.864 98.304 86.016 232.448 133.12 375.808 119.808 250.88-24.576 446.464-236.544 451.584-488.448z" fill="#A5CF33" p-id="1238"></path><path d="M439.296 25.6C210.944 25.6 25.6 210.944 25.6 439.296v145.408c0 16.384 1.024 32.768 3.072 49.152C111.616 746.496 246.784 819.2 399.36 815.104c235.52-6.144 427.008-199.68 432.128-434.176 3.072-138.24-57.344-262.144-152.576-345.088-29.696-7.168-61.44-10.24-93.184-10.24H439.296z" fill="#A9D338" p-id="1239"></path><path d="M563.2 25.6H439.296C210.944 25.6 25.6 210.944 25.6 439.296v74.752c58.368 149.504 207.872 253.952 380.928 245.76 200.704-10.24 362.496-175.104 368.64-375.808 4.096-156.672-82.944-291.84-211.968-358.4z" fill="#ADD63C" p-id="1240"></path><path d="M384 44.032c-33.792 0-67.584 5.12-98.304 14.336-73.728 28.672-137.216 78.848-183.296 141.312-31.744 51.2-50.176 111.616-50.176 176.128 0 183.296 148.48 331.776 331.776 331.776s331.776-148.48 331.776-331.776S567.296 44.032 384 44.032z" fill="#B1D941" p-id="1241"></path><path d="M384 376.832m-275.456 0a275.456 275.456 0 1 0 550.912 0 275.456 275.456 0 1 0-550.912 0Z" fill="#B4DD46" p-id="1242"></path><path d="M384 376.832m-220.16 0a220.16 220.16 0 1 0 440.32 0 220.16 220.16 0 1 0-440.32 0Z" fill="#B8E04B" p-id="1243"></path><path d="M640 599.04c-17.408 0-33.792 5.12-47.104 15.36l-129.024-91.136v-8.192-1.024L598.016 419.84c12.288 7.168 26.624 11.264 41.984 11.264 48.128 0 87.04-38.912 87.04-87.04s-38.912-87.04-87.04-87.04-87.04 38.912-87.04 87.04c0 7.168 1.024 13.312 2.048 19.456l-122.88 87.04c-14.336-11.264-32.768-18.432-52.224-18.432-46.08 0-83.968 37.888-83.968 83.968 0 46.08 37.888 83.968 83.968 83.968 19.456 0 37.888-7.168 52.224-18.432l125.952 88.064c-1.024 4.096-1.024 9.216-1.024 13.312 0 46.08 37.888 83.968 83.968 83.968 46.08 0 83.968-37.888 83.968-83.968s-37.888-83.968-84.992-83.968z" fill="#FFFFFF" opacity=".8" p-id="1244"></path></svg>