<?xml version="1.0" standalone="no"?><!DOCTYPE svg PUBLIC "-//W3C//DTD SVG 1.1//EN" "http://www.w3.org/Graphics/SVG/1.1/DTD/svg11.dtd"><svg t="1651468874129" class="icon" viewBox="0 0 1024 1024" version="1.1" xmlns="http://www.w3.org/2000/svg" p-id="7698" xmlns:xlink="http://www.w3.org/1999/xlink" width="64" height="64"><defs><style type="text/css">@font-face { font-family: feedback-iconfont; src: url("//at.alicdn.com/t/font_1031158_u69w8yhxdu.woff2?t=1630033759944") format("woff2"), url("//at.alicdn.com/t/font_1031158_u69w8yhxdu.woff?t=1630033759944") format("woff"), url("//at.alicdn.com/t/font_1031158_u69w8yhxdu.ttf?t=1630033759944") format("truetype"); }
</style></defs><path d="M406.349206 540.105143l50.188191-253.100699L536.380952 426.327365l-7.00546 32.507937-9.669079 48.761904z" fill="#E7001E" p-id="7699"></path><path d="M828.952381 507.597206c-27.800381 0-50.165841 23.263492-48.692825 51.384889 1.381587 26.368 25.047365 46.138921 51.451936 46.138921H845.206349a16.253968 16.253968 0 0 0 16.253968-16.253968v-65.015873a16.253968 16.253968 0 0 0-16.253968-16.253969h-16.253968z" fill="#8A8895" p-id="7700"></path><path d="M910.222222 718.898794c-62.837841 0-113.777778 50.939937-113.777778 113.777777s50.939937 113.777778 113.777778 113.777778 113.777778-50.939937 113.777778-113.777778-50.939937-113.777778-113.777778-113.777777z m0 178.79365c-35.907048 0-65.015873-29.108825-65.015873-65.015873 0-35.907048 29.108825-65.015873 65.015873-65.015873s65.015873 29.108825 65.015873 65.015873c0 35.907048-29.108825 65.015873-65.015873 65.015873z" fill="#5C546A" p-id="7701"></path><path d="M910.222222 848.93054a16.193016 16.193016 0 0 1-11.491555-4.762413l-146.285715-146.285714c-6.349206-6.349206-6.349206-16.635937 0-22.985143s16.635937-6.349206 22.985143 0l146.285715 146.285714a16.249905 16.249905 0 0 1 0 22.985143 16.203175 16.203175 0 0 1-11.493588 4.762413z" fill="#8A8895" p-id="7702"></path><path d="M601.396825 832.676571c-53.861587 0-97.52381-43.662222-97.523809-97.523809v-97.52381H292.571429v195.047619h308.825396z" fill="#E7001E" p-id="7703"></path><path d="M624.603429 848.93054H373.84127c-8.984381 0-16.253968-7.269587-16.253968-16.253969s7.269587-16.253968 16.253968-16.253968h250.762159c10.666667 0 20.650667-5.237841 26.72965-14.000762l106.888127-154.396444a64.873651 64.873651 0 0 0 6.903873-61.159619l-40.618666-101.571048a16.193016 16.193016 0 0 0-15.095873-10.20546H666.412698c-8.984381 0-16.253968-7.269587-16.253968-16.253968s7.269587-16.253968 16.253968-16.253969h42.999873c20.063492 0 37.825016 12.032 45.285588 30.634667l40.618666 101.587302a97.340952 97.340952 0 0 1-10.365968 91.729269l-106.888127 154.396445a65.056508 65.056508 0 0 1-53.459301 28.001524z" fill="#E7001E" p-id="7704"></path><path d="M520.126984 637.628952H211.301587c-17.95454 0-32.507937-14.553397-32.507936-32.507936s14.553397-32.507937 32.507936-32.507937h308.825397c17.95454 0 32.507937 14.553397 32.507937 32.507937s-14.553397 32.507937-32.507937 32.507936z" fill="#7E5C62" p-id="7705"></path><path d="M308.825397 572.613079H32.507937c-17.95454 0-32.507937-14.553397-32.507937-32.507936v-162.539683c0-17.95454 14.553397-32.507937 32.507937-32.507936h276.31746c17.95454 0 32.507937 14.553397 32.507936 32.507936v162.539683c0 17.952508-14.553397 32.507937-32.507936 32.507936z" fill="#FFE0B1" p-id="7706"></path><path d="M0 410.073397h341.333333v32.507936H0z" fill="#F7AA6B" p-id="7707"></path><path d="M747.68254 848.93054c-8.984381 0-16.253968-7.269587-16.253969-16.253969 0-98.586413 80.207238-178.793651 178.793651-178.79365 31.412825 0 62.317714 8.269206 89.350095 23.889269 7.777524 4.49219 10.445206 14.443683 5.953016 22.206985-4.508444 7.777524-14.47619 10.428952-22.206984 5.953015-22.111492-12.777651-47.380317-19.539302-73.096127-19.539301-80.666413 0-146.285714 65.619302-146.285714 146.285714a16.24381 16.24381 0 0 1-16.253968 16.251937zM666.412698 458.835302h-113.777777a32.512 32.512 0 0 1-29.080381-17.968762l-65.015873-130.031746c-8.023365-16.062984-1.515683-35.588063 14.539174-43.619556 16.04673-8.031492 35.57181-1.540063 43.619556 14.539175l56.023365 112.062984H666.412698c17.952508 0 32.507937 14.555429 32.507937 32.507936s-14.555429 32.509968-32.507937 32.509969z" fill="#FF4F19" p-id="7708"></path><path d="M412.795937 507.597206h223.744a65.064635 65.064635 0 0 1 53.142349 27.570794 65.07073 65.07073 0 0 1 8.080254 59.316825l-78.27708 201.947429c-5.024508 12.826413-17.294222 20.666921-30.277079 20.666921-3.943619 0-7.952254-0.729397-11.849143-2.253207-16.715175-6.556444-24.96-25.413079-18.413714-42.126222l77.935746-201.027048-198.024127 0.920381c-17.952508 0-32.507937-14.555429-32.507937-32.507936" fill="#5C546A" p-id="7709"></path><path d="M599.972571 150.639746c-3.031365-5.270349-8.364698-8.380952-14.904888-8.094476-120.476444 6.253714-120.476444 14.618413-120.476445 29.809778 0 8.476444 4.809143 59.158349 5.778286 69.237841a16.166603 16.166603 0 0 0 5.412571 10.619936 81.219048 81.219048 0 0 0 53.825016 20.380445c44.810159 0 81.269841-36.459683 81.269841-81.269841a81.176381 81.176381 0 0 0-10.904381-40.683683z" fill="#FFE0B1" p-id="7710"></path><path d="M48.761905 475.08927a16.253968 16.253968 0 0 1-16.253968-16.253968v-48.761905h32.507936v48.761905a16.253968 16.253968 0 0 1-16.253968 16.253968zM276.31746 475.08927a16.253968 16.253968 0 0 1-16.253968-16.253968v-48.761905h32.507937v48.761905a16.253968 16.253968 0 0 1-16.253969 16.253968z" fill="#7E5C62" p-id="7711"></path><path d="M325.079365 832.676571c0 35.907048-29.108825 65.015873-65.015873 65.015873s-65.015873-29.106794-65.015873-65.015873H146.285714c0 62.837841 50.939937 113.777778 113.777778 113.777778s113.777778-50.937905 113.777778-113.777778h-48.761905z" fill="#5C546A" p-id="7712"></path><path d="M263.054222 638.998349c-92.83454 12.038095-167.976635 80.097524-190.715936 169.150984-5.21346 20.417016 10.617905 40.252952 31.689143 40.252953h319.443301c11.802413-23.712508 17.562413-50.964317 14.630603-79.884191-8.58819-84.721778-90.599619-140.468825-175.047111-129.519746z" fill="#FF4F19" p-id="7713"></path><path d="M630.243556 138.435048c-24.966095-47.479873-79.538794-71.757206-133.467429-56.198096-38.440635 11.091302-68.632381 43.14819-77.77727 82.096762-6.916063 29.448127-2.505143 58.902349 12.525714 84.482032 2.809905 4.78273 8.173714 7.523556 13.720381 7.523556h47.841524c8.208254 0 15.817143-4.307302 20.039111-11.347302l37.20127-62.023111a16.266159 16.266159 0 0 1 13.949968-7.899429h43.778032c8.842159 0 16.857397-4.538921 21.44508-12.127492 4.553143-7.556063 4.839619-16.713143 0.743619-24.50692z" fill="#E7001E" p-id="7714"></path></svg>