<?xml version="1.0" standalone="no"?><!DOCTYPE svg PUBLIC "-//W3C//DTD SVG 1.1//EN" "http://www.w3.org/Graphics/SVG/1.1/DTD/svg11.dtd"><svg t="1653098160392" class="icon" viewBox="0 0 1024 1024" version="1.1" xmlns="http://www.w3.org/2000/svg" p-id="1365" xmlns:xlink="http://www.w3.org/1999/xlink" width="64" height="64"><defs><style type="text/css">@font-face { font-family: feedback-iconfont; src: url("//at.alicdn.com/t/font_1031158_u69w8yhxdu.woff2?t=1630033759944") format("woff2"), url("//at.alicdn.com/t/font_1031158_u69w8yhxdu.woff?t=1630033759944") format("woff"), url("//at.alicdn.com/t/font_1031158_u69w8yhxdu.ttf?t=1630033759944") format("truetype"); }
</style></defs><path d="M584.704 998.4H439.296c-228.352 0-413.696-185.344-413.696-413.696V439.296c0-228.352 185.344-413.696 413.696-413.696h145.408c228.352 0 413.696 185.344 413.696 413.696v145.408c0 228.352-185.344 413.696-413.696 413.696z" fill="#38B6FF" p-id="1366"></path><path d="M998.4 584.704V439.296c0-228.352-185.344-413.696-413.696-413.696H439.296C210.944 25.6 25.6 210.944 25.6 439.296v145.408c0 228.352 185.344 413.696 413.696 413.696h145.408c13.312 0 26.624-1.024 38.912-2.048 162.816-61.44 294.912-185.344 368.64-342.016 4.096-22.528 6.144-46.08 6.144-69.632z" fill="#38B6FF" p-id="1367"></path><path d="M584.704 25.6H439.296C210.944 25.6 25.6 210.944 25.6 439.296v145.408c0 159.744 90.112 296.96 222.208 366.592 45.056 10.24 91.136 16.384 139.264 16.384C715.776 967.68 983.04 700.416 983.04 371.712c0-17.408-1.024-34.816-2.048-51.2-51.2-171.008-208.896-294.912-396.288-294.912z" fill="#39BBFE" p-id="1368"></path><path d="M911.36 371.712c0-91.136-23.552-177.152-64.512-252.928-71.68-58.368-161.792-93.184-261.12-93.184H439.296C210.944 25.6 25.6 210.944 25.6 439.296v145.408c0 79.872 22.528 153.6 61.44 216.064 84.992 59.392 188.416 94.208 300.032 94.208C675.84 896 911.36 660.48 911.36 371.712z" fill="#3AC0FC" p-id="1369"></path><path d="M439.296 25.6C210.944 25.6 25.6 210.944 25.6 439.296v145.408c0 22.528 2.048 44.032 5.12 65.536 82.944 105.472 210.944 173.056 355.328 173.056 249.856 0 452.608-202.752 452.608-452.608 0-131.072-55.296-247.808-143.36-330.752-34.816-9.216-71.68-15.36-109.568-15.36H439.296z" fill="#3BC6FB" p-id="1370"></path><path d="M544.768 25.6H439.296C210.944 25.6 25.6 210.944 25.6 439.296v51.2c50.176 151.552 192.512 261.12 361.472 261.12 209.92 0 379.904-169.984 379.904-379.904 0-153.6-91.136-285.696-222.208-346.112z" fill="#3BCBFA" p-id="1371"></path><path d="M387.072 371.712m-308.224 0a308.224 308.224 0 1 0 616.448 0 308.224 308.224 0 1 0-616.448 0Z" fill="#3CD0F8" p-id="1372"></path><path d="M387.072 371.712m-235.52 0a235.52 235.52 0 1 0 471.04 0 235.52 235.52 0 1 0-471.04 0Z" fill="#3DD5F7" p-id="1373"></path><path d="M740.352 417.792c-24.576 0-45.056 20.48-45.056 45.056V465.92c0 7.168 2.048 15.36 6.144 21.504l-86.016 52.224 1.024 1.024-79.872-145.408c11.264-8.192 19.456-21.504 19.456-36.864 0-24.576-20.48-45.056-45.056-45.056-24.576 0-45.056 20.48-45.056 45.056 0 16.384 8.192 29.696 20.48 37.888l-77.824 142.336c-4.096-2.048-81.92-50.176-88.064-53.248 4.096-7.168 7.168-15.36 7.168-24.576 0-24.576-20.48-45.056-45.056-45.056-24.576 0-45.056 20.48-45.056 45.056 0 22.528 17.408 40.96 38.912 44.032l54.272 186.368c4.096 13.312 11.264 18.432 24.576 18.432h312.32c13.312 0 20.48-5.12 23.552-18.432l53.248-184.32c1.024 0 2.048-1.024 3.072-1.024h1.024c1.024 0 3.072-1.024 4.096-1.024 18.432-6.144 30.72-22.528 30.72-43.008 2.048-23.552-17.408-44.032-43.008-44.032z" fill="#FFFFFF" opacity=".8" p-id="1374"></path></svg>